<svg id="Layer_1" enable-background="new 0 0 512 512" height="512" viewBox="0 0 512 512" width="512" xmlns="http://www.w3.org/2000/svg" xmlns:xlink="http://www.w3.org/1999/xlink"><linearGradient id="SVGID_1_" gradientUnits="userSpaceOnUse" x1="22.987" x2="489.013" y1="489.013" y2="22.987"><stop offset="0" stop-color="#fcc60e"/><stop offset="1" stop-color="#e92e29"/></linearGradient><path d="m401.511 307.744-51.304-29.621c-7.604-4.391-16.476-5.553-24.982-3.274s-15.608 7.722-19.999 15.327c-2.743 4.751-7.569 10.734-14.979 12.25-6.718 1.373-12.65.041-18.132-4.074-19.355-14.525-43.944-39.114-58.467-58.467-4.115-5.483-5.447-11.414-4.074-18.132 1.516-7.411 7.498-12.236 12.25-14.979 7.604-4.39 13.047-11.492 15.326-19.999s1.117-17.378-3.273-24.982l-29.621-51.305c-8.211-14.22-25.264-20.188-40.55-14.186l-.624.245c-24.388 9.574-42.212 16.913-49.476 24.176-15.966 15.966-30.413 46.341-8.57 100.38 14.2 35.131 41.439 73.897 76.701 109.158 35.261 35.261 74.027 62.5 109.158 76.701 19.707 7.966 36.264 11.105 50.126 11.105 24.148-.001 40.111-9.531 50.255-19.675 7.263-7.264 14.602-25.088 24.176-49.476l.245-.624c6.002-15.284.036-32.337-14.186-40.548zm-8.153 31.778-.245.624c-4.703 11.978-14.487 36.902-18.807 41.276-19.641 19.641-51.308 12.63-74.416 3.29-31.746-12.833-68.625-38.864-101.182-71.421-32.556-32.557-58.588-69.436-71.42-101.182-9.34-23.107-16.352-54.775 3.289-74.415 4.375-4.321 29.299-14.105 41.276-18.808l.625-.245c1.117-.438 2.256-.649 3.369-.649 3.082 0 5.963 1.617 7.625 4.496l29.622 51.305c1.185 2.052 1.495 4.456.875 6.77s-2.091 4.241-4.144 5.425c-12.746 7.359-21.186 18.353-23.763 30.957-2.75 13.452.151 26.365 8.391 37.345 15.966 21.277 41.979 47.289 63.258 63.258 10.98 8.24 23.896 11.14 37.346 8.391 12.603-2.578 23.597-11.017 30.956-23.764 1.185-2.052 3.111-3.523 5.425-4.144 2.313-.622 4.717-.31 6.77.875l51.305 29.622c3.916 2.263 5.498 6.784 3.845 10.994zm-131.606-181.385c0-6.627 5.372-12 12-12 24.604 0 47.735 9.581 65.133 26.979 17.397 17.397 26.979 40.528 26.979 65.133 0 6.627-5.373 12-12 12s-12-5.373-12-12c0-18.193-7.085-35.298-19.95-48.162-12.865-12.865-29.969-19.95-48.162-19.949-6.627-.002-12-5.374-12-12.001zm0-51.501c0-6.627 5.373-12 12-12 38.36 0 74.424 14.938 101.549 42.063s42.063 63.189 42.063 101.549c0 6.627-5.373 12-12 12s-12-5.373-12-12c0-31.95-12.442-61.987-35.033-84.579-22.592-22.591-52.629-35.033-84.579-35.033-6.627 0-12-5.373-12-12zm0 103c0-6.627 5.373-12 12-12 10.847 0 21.045 4.224 28.716 11.894 7.671 7.672 11.895 17.87 11.895 28.717 0 6.627-5.373 12-12 12s-12-5.373-12-12c0-4.437-1.728-8.609-4.866-11.747-3.137-3.137-7.309-4.865-11.746-4.865-6.626.001-11.999-5.371-11.999-11.999zm171.855-209.636h-355.214c-43.226 0-78.393 35.167-78.393 78.393v355.215c0 43.225 35.167 78.392 78.393 78.392h355.215c43.225 0 78.392-35.167 78.392-78.393v-355.214c0-43.226-35.167-78.393-78.393-78.393zm54.393 433.607c0 29.993-24.401 54.393-54.393 54.393h-355.214c-29.992 0-54.393-24.4-54.393-54.393v-355.214c0-29.993 24.401-54.393 54.393-54.393h355.215c29.991 0 54.392 24.4 54.392 54.393z" fill="url(#SVGID_1_)"/></svg>