<svg id="Layer_1" enable-background="new 0 0 512 512" height="512" viewBox="0 0 512 512" width="512" xmlns="http://www.w3.org/2000/svg" xmlns:xlink="http://www.w3.org/1999/xlink"><linearGradient id="SVGID_1_" gradientUnits="userSpaceOnUse" x1="22.987" x2="489.014" y1="489.014" y2="22.987"><stop offset="0" stop-color="#fcc60e"/><stop offset="1" stop-color="#e92e29"/></linearGradient><path d="m256.008 94c-89.327 0-162 72.673-162 162 0 30.37 8.374 59.737 24.277 85.339l-23.46 60.31c-1.726 4.435-.667 9.471 2.698 12.836 2.293 2.293 5.362 3.515 8.488 3.515 1.461 0 2.935-.267 4.348-.817l60.31-23.46c25.602 15.903 54.97 24.277 85.339 24.277 89.327 0 162-72.673 162-162s-72.674-162-162-162zm0 300c-27.694 0-54.404-8.169-77.241-23.625-2.014-1.363-4.361-2.062-6.727-2.062-1.468 0-2.943.269-4.35.816l-40.609 15.797 15.797-40.609c1.429-3.673.963-7.813-1.246-11.077-15.456-22.836-23.625-49.545-23.625-77.24 0-76.093 61.907-138 138-138s138 61.907 138 138-61.906 138-137.999 138zm87.017-112.308-29.793-17.202c-5.58-3.221-12.086-4.074-18.326-2.403-6.238 1.671-11.448 5.665-14.669 11.245-.881 1.527-2.749 4.168-5.35 4.7-2.475.505-4.481.057-6.502-1.46-10.907-8.185-24.765-22.042-32.949-32.949-1.517-2.021-1.967-4.026-1.46-6.502.532-2.601 3.173-4.468 4.7-5.35 5.58-3.221 9.573-8.431 11.245-14.668 1.672-6.238.818-12.747-2.403-18.326l-17.202-29.795c-6.024-10.432-18.535-14.809-29.744-10.405l-.352.138c-15.207 5.969-25.542 10.25-30.461 15.17-8.64 8.64-17.424 24.597-10.203 51.546 6.394 23.861 24.534 52.02 49.769 77.254s53.393 43.375 77.254 49.769c6.998 1.875 13.25 2.671 18.83 2.67 15.91 0 26.32-6.476 32.717-12.873 4.917-4.917 9.195-15.245 15.161-30.44l.146-.374c4.401-11.213.025-23.723-10.408-29.745zm-11.933 20.974-.146.374c-2.474 6.301-7.595 19.343-9.939 22.386-6.072 5.941-15.566 7.235-28.217 3.846-19.621-5.258-44.479-21.541-66.496-43.557s-38.299-46.875-43.557-66.495c-3.39-12.652-2.096-22.144 3.846-28.217 3.044-2.346 16.099-7.471 22.405-9.947l.354-.139c.11-.044.129-.037.188.066l17.202 29.795c.036.063.006.173-.057.209-8.666 5.003-14.424 12.577-16.213 21.326-1.894 9.262.104 18.155 5.778 25.716 9.526 12.694 25.045 28.213 37.741 37.74 7.561 5.674 16.456 7.672 25.715 5.777 8.75-1.79 16.323-7.548 21.326-16.214.036-.063.147-.091.209-.056l29.793 17.202c.106.059.112.077.068.188zm102.515-302.666h-355.214c-43.226 0-78.393 35.167-78.393 78.393v355.215c0 43.225 35.167 78.392 78.393 78.392h355.215c43.225 0 78.392-35.167 78.392-78.393v-355.214c0-43.226-35.167-78.393-78.393-78.393zm54.393 433.607c0 29.993-24.4 54.393-54.393 54.393h-355.214c-29.993 0-54.393-24.4-54.393-54.393v-355.214c0-29.993 24.4-54.393 54.393-54.393h355.215c29.992 0 54.392 24.4 54.392 54.393z" fill="url(#SVGID_1_)"/></svg>