<svg id="Layer_1" enable-background="new 0 0 512 512" height="512" viewBox="0 0 512 512" width="512" xmlns="http://www.w3.org/2000/svg" xmlns:xlink="http://www.w3.org/1999/xlink"><linearGradient id="SVGID_1_" gradientUnits="userSpaceOnUse" x1="85.175" x2="426.825" y1="402.352" y2="60.701"><stop offset="0" stop-color="#fcc60e"/><stop offset="1" stop-color="#e92e29"/></linearGradient><path d="m460.067 94.753-200.916-86.107c-2.012-.861-4.291-.861-6.303 0l-200.915 86.107c-2.941 1.261-4.849 4.153-4.849 7.354v162.459c0 56.558 20.218 111.731 56.929 155.357 36.696 43.607 87.588 72.972 143.302 82.684 2.807.49 5.831 1.394 8.686 1.394 2.848 0 5.881-.905 8.686-1.394 55.714-9.712 106.605-39.076 143.302-82.684 36.711-43.626 56.929-98.8 56.929-155.357v-162.46c-.002-3.2-1.909-6.092-4.851-7.353zm-11.151 169.812c0 109.91-78.636 203.393-186.979 222.279l-5.937 1.036-5.938-1.035c-108.342-18.887-186.978-112.369-186.978-222.28v-157.183l192.916-82.678 192.916 82.678zm-196.067-223.28-170.916 73.249c-2.941 1.261-4.849 4.153-4.849 7.354v142.678c0 49.503 17.716 97.818 49.884 136.044 32.155 38.212 76.726 63.939 125.497 72.442 1.163.203 2.347.496 3.533.496 1.184 0 2.374-.293 3.536-.496 48.772-8.503 93.343-34.23 125.498-72.442 32.168-38.226 49.884-86.541 49.884-136.044v-142.678c0-3.2-1.907-6.093-4.849-7.354l-170.916-73.249c-2.011-.861-4.291-.861-6.302 0zm166.067 85.878v137.402c0 95.294-68.186 176.346-162.131 192.725l-.785.137-.786-.137c-93.944-16.379-162.13-97.431-162.13-192.725v-137.402l162.916-69.82zm-270.916 129.931c0 59.551 48.448 107.999 108 107.999s108-48.448 108-107.999c0-59.552-48.448-108-108-108s-108 48.448-108 108zm200 0c0 50.729-41.271 91.999-92 91.999s-92-41.271-92-91.999 41.271-92 92-92 92 41.271 92 92zm-122.419-15.681c-8.502-8.502-22.337-8.501-30.843.001-4.119 4.119-6.387 9.597-6.387 15.422s2.269 11.302 6.387 15.421l30.921 30.921c4.252 4.251 9.837 6.377 15.422 6.377s11.17-2.126 15.422-6.377c16.71-16.711 51.071-51.597 60.811-61.433 4.101-4.122 6.351-9.596 6.335-15.412-.017-5.814-2.296-11.275-6.419-15.376-4.108-4.087-9.558-6.335-15.351-6.335-.021 0-.041 0-.062 0-5.815.017-11.276 2.296-15.388 6.43l-45.396 45.813zm15.497 34.792c2.128-.005 4.166-.857 5.664-2.369l51.042-51.512c1.088-1.094 2.535-1.697 4.077-1.702h.017c1.535 0 2.979.596 4.068 1.679 1.094 1.088 1.697 2.535 1.702 4.077.004 1.541-.592 2.991-1.691 4.097-9.765 9.861-44.101 44.722-60.769 61.389-2.264 2.266-5.951 2.266-8.215 0l-30.921-30.921c-.001 0-.001 0-.001 0-1.097-1.097-1.701-2.555-1.701-4.106 0-1.553.604-3.012 1.701-4.107 1.133-1.133 2.621-1.699 4.109-1.699 1.487 0 2.975.566 4.106 1.698l21.135 21.135c1.501 1.5 3.536 2.343 5.657 2.343.007-.002.014-.002.02-.002z" fill="url(#SVGID_1_)"/></svg>