<svg id="Layer_1" enable-background="new 0 0 512 512" height="512" viewBox="0 0 512 512" width="512" xmlns="http://www.w3.org/2000/svg" xmlns:xlink="http://www.w3.org/1999/xlink"><linearGradient id="SVGID_1_" gradientUnits="userSpaceOnUse" x1="75.066" x2="436.934" y1="436.934" y2="75.066"><stop offset="0" stop-color="#fcc60e"/><stop offset="1" stop-color="#e92e29"/></linearGradient><path d="m256 94c-89.327 0-162 72.673-162 162 0 89.328 72.673 162 162 162 89.328 0 162-72.672 162-162 0-89.327-72.672-162-162-162zm0 300c-76.094 0-138-61.907-138-138s61.906-138 138-138 138 61.907 138 138c0 76.094-61.907 138-138 138zm52.557-181.448c0 23.096-14.797 43.252-36.819 50.157-2.341.733-3.737 2.635-3.737 5.087v16.022c0 6.627-5.373 12-12 12s-12-5.373-12-12v-16.022c0-12.886 8.262-24.134 20.559-27.988 11.961-3.75 19.998-14.703 19.998-27.255 0-15.746-12.811-28.557-28.557-28.557s-28.557 12.811-28.557 28.557c0 6.627-5.372 12-12 12s-12-5.373-12-12c0-28.98 23.577-52.557 52.557-52.557s52.556 23.576 52.556 52.556zm-35.946 122.793c0 9.149-7.463 16.611-16.611 16.611s-16.611-7.462-16.611-16.611 7.463-16.611 16.611-16.611 16.611 7.463 16.611 16.611zm-16.611-335.345c-141.159 0-256 114.841-256 256s114.841 256 256 256 256-114.841 256-256-114.841-256-256-256zm0 488c-127.925 0-232-104.075-232-232s104.075-232 232-232 232 104.075 232 232-104.076 232-232 232z" fill="url(#SVGID_1_)"/></svg>