<svg id="Layer_1" enable-background="new 0 0 512 512" height="512" viewBox="0 0 512 512" width="512" xmlns="http://www.w3.org/2000/svg" xmlns:xlink="http://www.w3.org/1999/xlink"><linearGradient id="SVGID_1_" gradientUnits="userSpaceOnUse" x1="30.712" x2="476.803" y1="497.033" y2="50.942"><stop offset="0" stop-color="#fcc60e"/><stop offset="1" stop-color="#e92e29"/></linearGradient><path d="m97.097 193.89c0-4.418 3.582-8 8-8h197.211c4.418 0 8 3.582 8 8s-3.582 8-8 8h-197.211c-4.418 0-8-3.582-8-8zm164.527 58.119c0-4.418-3.582-8-8-8h-148.527c-4.418 0-8 3.582-8 8s3.582 8 8 8h148.527c4.418 0 8-3.582 8-8zm-75.716 50.118h-80.812c-4.418 0-8 3.582-8 8s3.582 8 8 8h80.812c4.418 0 8-3.582 8-8s-3.582-8-8-8zm0 58.119h-80.812c-4.418 0-8 3.582-8 8s3.582 8 8 8h80.812c4.418 0 8-3.582 8-8s-3.582-8-8-8zm0 58.118h-80.812c-4.418 0-8 3.582-8 8s3.582 8 8 8h80.812c4.418 0 8-3.582 8-8s-3.582-8-8-8zm-80.811-274.593h80.812c4.418 0 8-3.582 8-8s-3.582-8-8-8h-80.812c-4.418 0-8 3.582-8 8s3.582 8 8 8zm372.458 348.134-14.747 14.748c-3.512 3.511-7.984 5.347-12.994 5.347-.386 0-.774-.011-1.167-.033-5.215-.29-9.921-2.491-13.61-6.364l-56.731-59.52v46.024c0 4.418-3.582 8-8 8h-333.206c-4.418 0-8-3.582-8-8v-431.864c0-2.129.849-4.17 2.358-5.672 1.499-1.491 3.527-2.328 5.642-2.328h.042l44.201.231v-44.474c0-4.418 3.582-8 8-8h333.205c4.418 0 8 3.582 8 8v412.366l45.956 43.769c3.873 3.693 6.073 8.398 6.363 13.611.306 5.481-1.531 10.377-5.312 14.159zm-380.212-439.347 273.004 1.427c4.401.023 7.958 3.598 7.958 8v216.479l15.434 15.433c6.371 6.372 6.371 16.738 0 23.11l-11.797 11.797c-1.104 1.104-2.334 2.004-3.637 2.725v39.079l36.243 34.518v-389.126h-317.205zm250.467 265.226-35.107-35.107c-21.166 27.827-31.297 37.959-59.125 59.125l35.107 35.106c19.544-25.388 33.737-39.58 59.125-59.124zm-116.587 24.291c-.059-.06-.149-.089-.24-.089s-.182.029-.241.09l-11.797 11.797c-.119.119-.119.361 0 .48l57.169 57.17c.117.119.362.12.481-.001l11.797-11.797c.12-.119.12-.362 0-.481zm94.032-94.031c-.021-.022-.09-.091-.24-.091s-.218.067-.24.09c0 0 0 0-.001.001l-11.798 11.797c-.118.118-.118.363.001.482l57.169 57.168c.117.119.363.119.482 0l11.796-11.797c.12-.12.12-.363 0-.482zm20.648 91.705 16.401 15.621v-23.936c-1.086-.618-2.113-1.37-3.062-2.257-4.829 3.693-9.234 7.177-13.339 10.572zm-75.125-216.455 20.573-13.003c2.683-1.693 6.115-1.646 8.746.129l17.678 11.918v-52.628l-46.997-.246zm23.254 360.812-4.12-18.296c-.078-.027-.195-.055-.344-.055h-91.085c-.148 0-.266.027-.344.056l-4.12 18.295zm68.273-54.81-51.699-54.24c-3.38 4.089-6.851 8.477-10.527 13.285 5.98 6.399 5.867 16.459-.372 22.699l-11.797 11.797c-3.186 3.185-7.371 4.778-11.556 4.778s-8.367-1.592-11.554-4.777l-57.17-57.17c-3.08-3.08-4.775-7.185-4.775-11.556s1.696-8.474 4.775-11.554l11.797-11.797c6.243-6.241 16.312-6.353 22.711-.361 28.55-21.608 37.555-30.614 59.164-59.164-5.989-6.398-5.88-16.467.361-22.71l11.799-11.798c3.079-3.08 7.183-4.775 11.554-4.775s8.475 1.695 11.555 4.775l25.735 25.735v-192.52l-28.529-.149v67.585c0 2.958-1.632 5.674-4.243 7.063-2.613 1.389-5.777 1.223-8.229-.43l-25.818-17.406-28.433 17.971c-1.303.823-2.787 1.237-4.274 1.237-1.327 0-2.656-.33-3.86-.993-2.554-1.407-4.14-4.092-4.14-7.007v-68.433l-209.68-1.096v415.821h132.519l4.965-22.049c1.63-7.242 8.168-12.302 15.899-12.302h91.085c7.73 0 14.269 5.059 15.899 12.302l4.965 22.049h51.872v-54.81zm104.588 49.341c-.064-1.154-.491-2.027-1.427-2.919l-131.665-125.4c-4.405 4.086-8.544 8.226-12.629 12.633l125.448 131.614c.892.937 1.764 1.362 2.917 1.427 1.15.056 1.563-.258 1.956-.653l14.746-14.746c.468-.467.711-.918.654-1.956z" fill="url(#SVGID_1_)"/></svg>