<svg id="Layer_1" enable-background="new 0 0 512 512" height="512" viewBox="0 0 512 512" width="512" xmlns="http://www.w3.org/2000/svg" xmlns:xlink="http://www.w3.org/1999/xlink"><linearGradient id="SVGID_1_" gradientUnits="userSpaceOnUse" x1="39.477" x2="472.523" y1="527.735" y2="94.689"><stop offset="0" stop-color="#fcc60e"/><stop offset="1" stop-color="#e92e29"/></linearGradient><path d="m512 196.763c0-2.407-1.084-4.687-2.951-6.205l-65.938-53.654v-68.313c0-4.418-3.582-8-8-8h-85.784l-59.833-48.687c-19.402-15.788-47.563-15.79-66.964 0l-59.834 48.687h-85.808c-4.418 0-8 3.582-8 8v68.328l-65.936 53.638c-1.868 1.519-2.952 3.798-2.952 6.206v275.332c0 22.004 18.431 39.905 41.085 39.905h429.83c22.654 0 41.085-17.901 41.085-39.905zm-21.166-.4-47.723 34.235v-73.067zm-258.206-172.049c13.549-11.027 33.216-11.027 46.766 0l44.582 36.276h-135.931zm194.483 52.277v165.485l-126.206 90.534h-89.81l-126.207-90.536v-165.483zm-358.223 154.005-47.72-34.233 47.72-38.82zm-52.888-18.249 179.357 128.664-175.917 143.145c-2.183-3.543-3.44-7.664-3.44-12.061zm25.085 283.653c-3.142 0-6.149-.559-8.923-1.568l179.206-145.822h89.264l179.207 145.821c-2.775 1.01-5.781 1.569-8.923 1.569zm451.475-11.844-175.917-143.145 179.357-128.663v259.747c0 4.397-1.258 8.517-3.44 12.061zm-363.027-278.612 16.899 2.706c.782 2.237 1.691 4.429 2.723 6.565l-10.039 13.865c-2.305 3.184-1.956 7.569.823 10.349l14.337 14.337c2.779 2.778 7.165 3.129 10.348.822l13.865-10.038c2.137 1.032 4.329 1.941 6.566 2.724l2.705 16.897c.621 3.881 3.969 6.735 7.899 6.735h20.276c3.93 0 7.278-2.854 7.899-6.735l2.705-16.898c2.238-.782 4.43-1.691 6.566-2.724l13.864 10.039c3.184 2.306 7.569 1.956 10.349-.822l14.337-14.337c2.779-2.779 3.128-7.165.823-10.349l-10.038-13.865c1.032-2.137 1.941-4.329 2.724-6.566l16.898-2.705c3.88-.621 6.735-3.97 6.735-7.899v-20.275c0-3.931-2.855-7.278-6.736-7.899l-16.899-2.705c-.782-2.237-1.691-4.43-2.723-6.566l10.039-13.864c2.305-3.183 1.956-7.569-.823-10.349l-14.337-14.337c-2.779-2.778-7.165-3.128-10.348-.822l-13.864 10.037c-2.137-1.032-4.33-1.941-6.567-2.724l-2.705-16.897c-.621-3.881-3.969-6.735-7.899-6.735h-20.275c-3.93 0-7.278 2.854-7.899 6.735l-2.705 16.897c-2.238.782-4.43 1.691-6.567 2.724l-13.864-10.037c-3.184-2.307-7.57-1.956-10.348.822l-14.337 14.337c-2.779 2.779-3.128 7.166-.823 10.349l10.039 13.864c-1.032 2.137-1.941 4.329-2.723 6.566l-16.899 2.705c-3.881.621-6.736 3.969-6.736 7.899v20.275c0 3.929 2.854 7.278 6.735 7.899zm9.265-21.354 15.101-2.417c3.148-.504 5.697-2.829 6.486-5.918 1.096-4.286 2.8-8.396 5.065-12.216 1.626-2.742 1.468-6.189-.401-8.771l-8.973-12.393 4.69-4.689 12.392 8.971c2.583 1.869 6.029 2.026 8.772.401 3.821-2.266 7.931-3.97 12.215-5.064 3.089-.789 5.415-3.338 5.919-6.486l2.417-15.101h6.633l2.417 15.101c.504 3.148 2.83 5.697 5.919 6.486 4.283 1.094 8.392 2.799 12.213 5.065 2.742 1.626 6.189 1.469 8.772-.401l12.393-8.972 4.69 4.689-8.973 12.393c-1.87 2.583-2.027 6.029-.401 8.772 2.264 3.817 3.968 7.927 5.065 12.216.79 3.088 3.338 5.413 6.486 5.917l15.101 2.417v6.633l-15.1 2.417c-3.148.504-5.696 2.829-6.486 5.918-1.096 4.284-2.8 8.395-5.066 12.215-1.626 2.743-1.469 6.189.401 8.772l8.973 12.393-4.69 4.69-12.392-8.973c-2.583-1.87-6.031-2.027-8.773-.401-3.816 2.264-7.927 3.969-12.216 5.066-3.088.79-5.412 3.338-5.916 6.485l-2.417 15.101h-6.633l-2.417-15.1c-.504-3.147-2.829-5.696-5.917-6.486-4.283-1.095-8.394-2.8-12.216-5.065-2.743-1.629-6.189-1.469-8.771.401l-12.393 8.972-4.69-4.69 8.973-12.393c1.87-2.583 2.027-6.029.401-8.771-2.264-3.818-3.969-7.929-5.065-12.216-.79-3.089-3.338-5.413-6.486-5.917l-15.102-2.418zm67 41.275c20.93 0 37.958-17.028 37.958-37.958s-17.028-37.958-37.958-37.958-37.958 17.028-37.958 37.958 17.028 37.958 37.958 37.958zm0-59.916c12.108 0 21.958 9.851 21.958 21.958s-9.85 21.958-21.958 21.958-21.958-9.851-21.958-21.958 9.85-21.958 21.958-21.958zm99.903 63.02c0-4.418 3.582-8 8-8h67.5c4.418 0 8 3.582 8 8s-3.582 8-8 8h-67.5c-4.419 0-8-3.582-8-8zm0-82.124c0-4.418 3.582-8 8-8h67.5c4.418 0 8 3.582 8 8s-3.582 8-8 8h-67.5c-4.419 0-8-3.582-8-8zm0 41.063c0-4.418 3.582-8 8-8h67.5c4.418 0 8 3.582 8 8s-3.582 8-8 8h-67.5c-4.419 0-8-3.582-8-8z" fill="url(#SVGID_1_)"/></svg>