<svg width="800" height="220" viewBox="0 0 800 220" fill="none" xmlns="http://www.w3.org/2000/svg">
<g clip-path="url(#clip0_13_5)">
<rect width="800" height="220" fill="white"/>
<path d="M616 216H796V4H4V216H292" stroke="#24559A" stroke-width="8"/>
<path d="M224.131 95.9702V88.3636H259.969V95.9702H246.609V132H237.49V95.9702H224.131ZM275.869 132.639C272.502 132.639 269.605 131.957 267.176 130.594C264.761 129.216 262.9 127.27 261.593 124.756C260.287 122.227 259.633 119.237 259.633 115.786C259.633 112.419 260.287 109.464 261.593 106.922C262.9 104.379 264.74 102.398 267.112 100.977C269.498 99.5568 272.297 98.8466 275.507 98.8466C277.666 98.8466 279.676 99.1946 281.537 99.8906C283.412 100.572 285.045 101.602 286.437 102.98C287.843 104.358 288.937 106.091 289.718 108.179C290.5 110.253 290.89 112.682 290.89 115.466V117.959H263.255V112.334H282.346C282.346 111.027 282.062 109.869 281.494 108.861C280.926 107.852 280.137 107.064 279.129 106.496C278.135 105.913 276.977 105.622 275.656 105.622C274.278 105.622 273.056 105.942 271.991 106.581C270.94 107.206 270.116 108.051 269.52 109.116C268.923 110.168 268.618 111.339 268.603 112.632V117.98C268.603 119.599 268.902 120.999 269.498 122.178C270.109 123.357 270.968 124.266 272.076 124.905C273.184 125.544 274.498 125.864 276.018 125.864C277.027 125.864 277.95 125.722 278.788 125.438C279.626 125.153 280.343 124.727 280.94 124.159C281.537 123.591 281.991 122.895 282.304 122.071L290.699 122.625C290.272 124.642 289.399 126.403 288.078 127.909C286.771 129.401 285.081 130.565 283.007 131.403C280.947 132.227 278.568 132.639 275.869 132.639ZM306.146 132.618C304.058 132.618 302.197 132.256 300.564 131.531C298.93 130.793 297.637 129.706 296.686 128.271C295.748 126.822 295.279 125.018 295.279 122.859C295.279 121.041 295.613 119.514 296.281 118.278C296.949 117.043 297.858 116.048 299.008 115.295C300.159 114.543 301.466 113.974 302.929 113.591C304.406 113.207 305.954 112.938 307.574 112.781C309.477 112.582 311.011 112.398 312.176 112.227C313.341 112.043 314.186 111.773 314.711 111.418C315.237 111.062 315.5 110.537 315.5 109.841V109.713C315.5 108.364 315.074 107.32 314.221 106.581C313.383 105.842 312.19 105.473 310.642 105.473C309.008 105.473 307.708 105.835 306.743 106.56C305.777 107.27 305.137 108.165 304.825 109.244L296.43 108.562C296.856 106.574 297.694 104.855 298.944 103.406C300.194 101.943 301.806 100.821 303.781 100.04C305.77 99.2443 308.071 98.8466 310.684 98.8466C312.502 98.8466 314.243 99.0597 315.904 99.4858C317.581 99.9119 319.065 100.572 320.358 101.467C321.664 102.362 322.694 103.513 323.447 104.919C324.2 106.311 324.576 107.98 324.576 109.926V132H315.968V127.462H315.713C315.187 128.484 314.484 129.386 313.603 130.168C312.723 130.935 311.664 131.538 310.429 131.979C309.193 132.405 307.765 132.618 306.146 132.618ZM308.745 126.354C310.081 126.354 311.26 126.091 312.282 125.565C313.305 125.026 314.108 124.301 314.69 123.392C315.272 122.483 315.564 121.453 315.564 120.303V116.83C315.279 117.014 314.889 117.185 314.392 117.341C313.909 117.483 313.362 117.618 312.751 117.746C312.14 117.859 311.529 117.966 310.919 118.065C310.308 118.151 309.754 118.229 309.257 118.3C308.191 118.456 307.261 118.705 306.466 119.045C305.67 119.386 305.052 119.848 304.612 120.43C304.172 120.999 303.951 121.709 303.951 122.561C303.951 123.797 304.399 124.741 305.294 125.395C306.203 126.034 307.353 126.354 308.745 126.354ZM331.618 132V99.2727H340.269V105.047H340.652C341.334 103.129 342.471 101.616 344.061 100.509C345.652 99.4006 347.556 98.8466 349.772 98.8466C352.016 98.8466 353.926 99.4077 355.503 100.53C357.08 101.638 358.131 103.143 358.657 105.047H358.998C359.665 103.172 360.873 101.673 362.62 100.551C364.381 99.4148 366.462 98.8466 368.863 98.8466C371.917 98.8466 374.395 99.8196 376.299 101.766C378.216 103.697 379.175 106.439 379.175 109.99V132H370.12V111.78C370.12 109.962 369.637 108.598 368.671 107.689C367.705 106.78 366.498 106.325 365.049 106.325C363.401 106.325 362.115 106.851 361.192 107.902C360.269 108.939 359.807 110.31 359.807 112.014V132H351.007V111.588C351.007 109.983 350.546 108.705 349.623 107.753C348.713 106.801 347.513 106.325 346.022 106.325C345.013 106.325 344.104 106.581 343.294 107.092C342.499 107.589 341.867 108.293 341.398 109.202C340.929 110.097 340.695 111.148 340.695 112.355V132H331.618ZM400.402 132V88.3636H417.874C421.084 88.3636 423.761 88.8395 425.906 89.7912C428.051 90.7429 429.663 92.0639 430.743 93.7543C431.822 95.4304 432.362 97.3622 432.362 99.5497C432.362 101.254 432.021 102.753 431.339 104.045C430.658 105.324 429.72 106.375 428.527 107.199C427.348 108.009 425.999 108.584 424.479 108.925V109.351C426.141 109.422 427.696 109.891 429.145 110.757C430.608 111.624 431.794 112.838 432.703 114.401C433.612 115.949 434.067 117.795 434.067 119.94C434.067 122.256 433.491 124.322 432.341 126.141C431.205 127.945 429.521 129.372 427.291 130.423C425.061 131.474 422.313 132 419.045 132H400.402ZM409.628 124.457H417.149C419.72 124.457 421.595 123.967 422.774 122.987C423.953 121.993 424.543 120.672 424.543 119.024C424.543 117.817 424.251 116.751 423.669 115.828C423.087 114.905 422.256 114.18 421.176 113.655C420.111 113.129 418.839 112.866 417.362 112.866H409.628V124.457ZM409.628 106.624H416.467C417.732 106.624 418.854 106.403 419.834 105.963C420.828 105.509 421.609 104.869 422.178 104.045C422.76 103.222 423.051 102.234 423.051 101.084C423.051 99.5071 422.49 98.2358 421.368 97.2699C420.26 96.304 418.683 95.821 416.638 95.821H409.628V106.624ZM454.814 132.639C451.448 132.639 448.55 131.957 446.121 130.594C443.706 129.216 441.846 127.27 440.539 124.756C439.232 122.227 438.578 119.237 438.578 115.786C438.578 112.419 439.232 109.464 440.539 106.922C441.846 104.379 443.685 102.398 446.057 100.977C448.444 99.5568 451.242 98.8466 454.452 98.8466C456.611 98.8466 458.621 99.1946 460.482 99.8906C462.357 100.572 463.99 101.602 465.382 102.98C466.789 104.358 467.882 106.091 468.664 108.179C469.445 110.253 469.836 112.682 469.836 115.466V117.959H442.201V112.334H461.292C461.292 111.027 461.007 109.869 460.439 108.861C459.871 107.852 459.083 107.064 458.074 106.496C457.08 105.913 455.922 105.622 454.601 105.622C453.223 105.622 452.002 105.942 450.936 106.581C449.885 107.206 449.061 108.051 448.465 109.116C447.868 110.168 447.563 111.339 447.549 112.632V117.98C447.549 119.599 447.847 120.999 448.444 122.178C449.054 123.357 449.914 124.266 451.022 124.905C452.13 125.544 453.444 125.864 454.963 125.864C455.972 125.864 456.895 125.722 457.733 125.438C458.571 125.153 459.289 124.727 459.885 124.159C460.482 123.591 460.936 122.895 461.249 122.071L469.644 122.625C469.218 124.642 468.344 126.403 467.023 127.909C465.716 129.401 464.026 130.565 461.952 131.403C459.892 132.227 457.513 132.639 454.814 132.639ZM502.989 108.605L494.679 109.116C494.537 108.406 494.232 107.767 493.763 107.199C493.294 106.616 492.676 106.155 491.909 105.814C491.157 105.459 490.255 105.281 489.203 105.281C487.797 105.281 486.611 105.58 485.645 106.176C484.679 106.759 484.196 107.54 484.196 108.52C484.196 109.301 484.509 109.962 485.134 110.501C485.759 111.041 486.831 111.474 488.351 111.801L494.275 112.994C497.456 113.648 499.828 114.699 501.391 116.148C502.953 117.597 503.735 119.5 503.735 121.858C503.735 124.003 503.103 125.885 501.838 127.504C500.588 129.124 498.87 130.388 496.682 131.297C494.509 132.192 492.002 132.639 489.161 132.639C484.828 132.639 481.377 131.737 478.806 129.933C476.249 128.115 474.75 125.643 474.31 122.518L483.238 122.05C483.507 123.371 484.161 124.379 485.198 125.075C486.235 125.757 487.563 126.098 489.182 126.098C490.773 126.098 492.051 125.793 493.017 125.182C493.998 124.557 494.495 123.754 494.509 122.774C494.495 121.95 494.147 121.276 493.465 120.75C492.783 120.21 491.732 119.798 490.311 119.514L484.644 118.385C481.448 117.746 479.069 116.638 477.506 115.061C475.958 113.484 475.184 111.474 475.184 109.031C475.184 106.929 475.752 105.118 476.888 103.598C478.039 102.078 479.651 100.906 481.725 100.082C483.813 99.2585 486.256 98.8466 489.054 98.8466C493.188 98.8466 496.441 99.7202 498.813 101.467C501.199 103.214 502.591 105.594 502.989 108.605ZM524.365 132.639C520.999 132.639 518.101 131.957 515.672 130.594C513.257 129.216 511.396 127.27 510.089 124.756C508.783 122.227 508.129 119.237 508.129 115.786C508.129 112.419 508.783 109.464 510.089 106.922C511.396 104.379 513.236 102.398 515.608 100.977C517.994 99.5568 520.793 98.8466 524.003 98.8466C526.162 98.8466 528.172 99.1946 530.033 99.8906C531.908 100.572 533.541 101.602 534.933 102.98C536.339 104.358 537.433 106.091 538.214 108.179C538.996 110.253 539.386 112.682 539.386 115.466V117.959H511.751V112.334H530.842C530.842 111.027 530.558 109.869 529.99 108.861C529.422 107.852 528.634 107.064 527.625 106.496C526.631 105.913 525.473 105.622 524.152 105.622C522.774 105.622 521.553 105.942 520.487 106.581C519.436 107.206 518.612 108.051 518.016 109.116C517.419 110.168 517.114 111.339 517.099 112.632V117.98C517.099 119.599 517.398 120.999 517.994 122.178C518.605 123.357 519.464 124.266 520.572 124.905C521.68 125.544 522.994 125.864 524.514 125.864C525.523 125.864 526.446 125.722 527.284 125.438C528.122 125.153 528.839 124.727 529.436 124.159C530.033 123.591 530.487 122.895 530.8 122.071L539.195 122.625C538.768 124.642 537.895 126.403 536.574 127.909C535.267 129.401 533.577 130.565 531.503 131.403C529.443 132.227 527.064 132.639 524.365 132.639ZM554.386 113.08V132H545.31V99.2727H553.96V105.047H554.344C555.068 103.143 556.283 101.638 557.987 100.53C559.692 99.4077 561.759 98.8466 564.188 98.8466C566.46 98.8466 568.442 99.3438 570.132 100.338C571.822 101.332 573.136 102.753 574.074 104.599C575.011 106.432 575.48 108.619 575.48 111.162V132H566.403V112.781C566.418 110.778 565.906 109.216 564.869 108.094C563.832 106.957 562.405 106.389 560.587 106.389C559.365 106.389 558.286 106.652 557.348 107.178C556.425 107.703 555.7 108.47 555.175 109.479C554.663 110.473 554.401 111.673 554.386 113.08ZM582.634 132V99.2727H591.434V104.983H591.775C592.371 102.952 593.373 101.418 594.779 100.381C596.185 99.3295 597.804 98.804 599.637 98.804C600.091 98.804 600.581 98.8324 601.107 98.8892C601.632 98.946 602.094 99.0241 602.492 99.1236V107.178C602.066 107.05 601.476 106.936 600.723 106.837C599.971 106.737 599.282 106.688 598.657 106.688C597.321 106.688 596.128 106.979 595.077 107.561C594.04 108.129 593.216 108.925 592.605 109.947C592.009 110.97 591.711 112.149 591.711 113.484V132H582.634ZM620.576 132.639C617.21 132.639 614.312 131.957 611.883 130.594C609.468 129.216 607.607 127.27 606.3 124.756C604.994 122.227 604.34 119.237 604.34 115.786C604.34 112.419 604.994 109.464 606.3 106.922C607.607 104.379 609.447 102.398 611.819 100.977C614.205 99.5568 617.004 98.8466 620.214 98.8466C622.373 98.8466 624.383 99.1946 626.244 99.8906C628.119 100.572 629.752 101.602 631.144 102.98C632.55 104.358 633.644 106.091 634.425 108.179C635.207 110.253 635.597 112.682 635.597 115.466V117.959H607.962V112.334H627.053C627.053 111.027 626.769 109.869 626.201 108.861C625.633 107.852 624.844 107.064 623.836 106.496C622.842 105.913 621.684 105.622 620.363 105.622C618.985 105.622 617.763 105.942 616.698 106.581C615.647 107.206 614.823 108.051 614.227 109.116C613.63 110.168 613.325 111.339 613.31 112.632V117.98C613.31 119.599 613.609 120.999 614.205 122.178C614.816 123.357 615.675 124.266 616.783 124.905C617.891 125.544 619.205 125.864 620.725 125.864C621.734 125.864 622.657 125.722 623.495 125.438C624.333 125.153 625.05 124.727 625.647 124.159C626.244 123.591 626.698 122.895 627.011 122.071L635.406 122.625C634.979 124.642 634.106 126.403 632.785 127.909C631.478 129.401 629.788 130.565 627.714 131.403C625.654 132.227 623.275 132.639 620.576 132.639ZM641.521 132V99.2727H650.597V132H641.521ZM646.08 95.054C644.731 95.054 643.573 94.6065 642.607 93.7116C641.656 92.8026 641.18 91.7159 641.18 90.4517C641.18 89.2017 641.656 88.1293 642.607 87.2344C643.573 86.3253 644.731 85.8707 646.08 85.8707C647.43 85.8707 648.58 86.3253 649.532 87.2344C650.498 88.1293 650.981 89.2017 650.981 90.4517C650.981 91.7159 650.498 92.8026 649.532 93.7116C648.58 94.6065 647.43 95.054 646.08 95.054ZM666.945 113.08V132H657.868V99.2727H666.519V105.047H666.902C667.627 103.143 668.841 101.638 670.546 100.53C672.25 99.4077 674.317 98.8466 676.746 98.8466C679.019 98.8466 681 99.3438 682.691 100.338C684.381 101.332 685.695 102.753 686.632 104.599C687.57 106.432 688.039 108.619 688.039 111.162V132H678.962V112.781C678.976 110.778 678.465 109.216 677.428 108.094C676.391 106.957 674.963 106.389 673.145 106.389C671.924 106.389 670.844 106.652 669.907 107.178C668.983 107.703 668.259 108.47 667.733 109.479C667.222 110.473 666.959 111.673 666.945 113.08Z" fill="#24559A"/>
<path d="M170.053 132.675C171.604 134.783 172.151 137.581 171.281 140.26L170.752 141.888L154.768 136.694L155.297 135.067C156.014 132.859 157.558 131.151 159.474 130.175C159.883 129.967 160.309 129.791 160.748 129.652" stroke="#24559A" stroke-width="4" stroke-miterlimit="10" stroke-linecap="round" stroke-linejoin="round"/>
<path d="M160.748 129.652L170.053 132.675L197.759 47.4052C198.594 44.8356 197.188 42.0757 194.618 41.2408C192.049 40.4058 189.289 41.8121 188.454 44.3817L160.748 129.652Z" stroke="#24559A" stroke-width="4" stroke-miterlimit="10" stroke-linecap="round" stroke-linejoin="round"/>
<path d="M139.997 144.329C136.984 148.174 133.551 151.754 129.238 154.123C120.19 159.092 111.538 157.891 109 157.443C112.76 160.114 117.117 162.9 122.078 165.582C124.574 166.931 127.225 168.254 130.03 169.522C139.854 173.964 148.421 176.405 156.012 177.858C160.191 178.657 164.076 179.158 167.712 179.529C169.851 177.231 173.452 172.76 175.595 166.092L175.632 165.976C177.36 160.599 178.248 154.988 178.266 149.34L178.269 148.381C178.277 145.97 176.728 143.829 174.434 143.084C168.484 141.151 157.116 137.457 151.136 135.514C148.818 134.761 146.281 135.607 144.88 137.6L143.433 139.658C142.335 141.217 141.199 142.794 139.997 144.329Z" stroke="#24559A" stroke-width="4" stroke-miterlimit="10" stroke-linecap="round" stroke-linejoin="round"/>
<path d="M122.077 165.581C125.26 165.675 130.349 165.209 135.979 162.112C141.581 159.03 145.122 154.77 146.821 152.454" stroke="#24559A" stroke-width="4" stroke-miterlimit="10" stroke-linecap="round" stroke-linejoin="round"/>
<path d="M137.807 172.73C140.535 172.196 143.906 171.051 147.457 168.664C152.543 165.244 155.642 160.862 157.116 158.497L157.55 157.814" stroke="#24559A" stroke-width="4" stroke-miterlimit="10" stroke-linecap="round" stroke-linejoin="round"/>
<path d="M166.883 162.478C166.096 165.067 164.355 169.614 160.568 173.828C159.017 175.553 157.405 176.908 155.845 177.974" stroke="#24559A" stroke-width="4" stroke-miterlimit="10" stroke-linecap="round" stroke-linejoin="round"/>
<path d="M177.762 156.59L140.003 144.321" stroke="#24559A" stroke-width="4" stroke-miterlimit="10" stroke-linecap="round" stroke-linejoin="round"/>
<path d="M178.238 150.926L143.455 139.624" stroke="#24559A" stroke-width="4" stroke-miterlimit="10" stroke-linecap="round" stroke-linejoin="round"/>
<path d="M313.438 203.131C313.347 202.324 312.972 201.699 312.312 201.256C311.653 200.807 310.824 200.582 309.824 200.582C309.108 200.582 308.489 200.696 307.966 200.923C307.443 201.145 307.037 201.452 306.747 201.844C306.463 202.23 306.321 202.67 306.321 203.165C306.321 203.58 306.418 203.937 306.611 204.239C306.81 204.54 307.068 204.793 307.386 204.997C307.71 205.196 308.057 205.364 308.426 205.5C308.795 205.631 309.151 205.739 309.491 205.824L311.196 206.267C311.753 206.403 312.324 206.588 312.909 206.821C313.494 207.054 314.037 207.361 314.537 207.741C315.037 208.122 315.44 208.594 315.747 209.156C316.06 209.719 316.216 210.392 316.216 211.176C316.216 212.165 315.96 213.043 315.449 213.81C314.943 214.577 314.207 215.182 313.241 215.625C312.281 216.068 311.119 216.29 309.756 216.29C308.449 216.29 307.318 216.082 306.364 215.668C305.409 215.253 304.662 214.665 304.122 213.903C303.582 213.136 303.284 212.227 303.227 211.176H305.869C305.92 211.807 306.125 212.332 306.483 212.753C306.847 213.168 307.31 213.477 307.872 213.682C308.44 213.881 309.062 213.98 309.739 213.98C310.483 213.98 311.145 213.864 311.724 213.631C312.31 213.392 312.77 213.062 313.105 212.642C313.44 212.216 313.608 211.719 313.608 211.151C313.608 210.634 313.46 210.21 313.165 209.881C312.875 209.551 312.48 209.278 311.98 209.062C311.486 208.847 310.926 208.656 310.301 208.491L308.239 207.929C306.841 207.548 305.733 206.989 304.915 206.25C304.102 205.511 303.696 204.534 303.696 203.318C303.696 202.312 303.969 201.435 304.514 200.685C305.06 199.935 305.798 199.352 306.73 198.938C307.662 198.517 308.713 198.307 309.884 198.307C311.065 198.307 312.108 198.514 313.011 198.929C313.92 199.344 314.636 199.915 315.159 200.642C315.682 201.364 315.955 202.193 315.977 203.131H313.438ZM324.673 216.264C323.406 216.264 322.315 215.977 321.4 215.403C320.491 214.824 319.792 214.026 319.303 213.009C318.815 211.991 318.57 210.827 318.57 209.514C318.57 208.185 318.82 207.011 319.32 205.994C319.82 204.972 320.525 204.173 321.434 203.599C322.343 203.026 323.414 202.739 324.647 202.739C325.641 202.739 326.528 202.923 327.306 203.293C328.085 203.656 328.712 204.168 329.19 204.827C329.673 205.486 329.96 206.256 330.05 207.136H327.57C327.434 206.523 327.121 205.994 326.633 205.551C326.15 205.108 325.502 204.886 324.69 204.886C323.979 204.886 323.357 205.074 322.823 205.449C322.295 205.818 321.883 206.347 321.587 207.034C321.292 207.716 321.144 208.523 321.144 209.455C321.144 210.409 321.289 211.233 321.579 211.926C321.869 212.619 322.278 213.156 322.806 213.537C323.34 213.918 323.968 214.108 324.69 214.108C325.173 214.108 325.61 214.02 326.002 213.844C326.4 213.662 326.732 213.403 326.999 213.068C327.272 212.733 327.462 212.33 327.57 211.858H330.05C329.96 212.705 329.684 213.46 329.224 214.125C328.763 214.79 328.147 215.312 327.374 215.693C326.607 216.074 325.707 216.264 324.673 216.264ZM335.324 208.227V216H332.776V198.545H335.29V205.04H335.452C335.759 204.335 336.227 203.776 336.858 203.361C337.489 202.946 338.313 202.739 339.33 202.739C340.227 202.739 341.011 202.923 341.682 203.293C342.358 203.662 342.881 204.213 343.25 204.946C343.625 205.673 343.812 206.582 343.812 207.673V216H341.264V207.98C341.264 207.02 341.017 206.276 340.523 205.747C340.028 205.213 339.341 204.946 338.46 204.946C337.858 204.946 337.318 205.074 336.841 205.33C336.369 205.585 335.997 205.96 335.724 206.455C335.457 206.943 335.324 207.534 335.324 208.227ZM349.761 208.227V216H347.213V202.909H349.659V205.04H349.821C350.122 204.347 350.594 203.79 351.236 203.369C351.884 202.949 352.699 202.739 353.682 202.739C354.574 202.739 355.355 202.926 356.026 203.301C356.696 203.67 357.216 204.222 357.585 204.955C357.955 205.687 358.139 206.594 358.139 207.673V216H355.591V207.98C355.591 207.031 355.344 206.29 354.849 205.756C354.355 205.216 353.676 204.946 352.812 204.946C352.222 204.946 351.696 205.074 351.236 205.33C350.781 205.585 350.42 205.96 350.153 206.455C349.892 206.943 349.761 207.534 349.761 208.227ZM367.199 216.264C365.909 216.264 364.798 215.989 363.866 215.438C362.94 214.881 362.224 214.099 361.719 213.094C361.219 212.082 360.969 210.898 360.969 209.54C360.969 208.199 361.219 207.017 361.719 205.994C362.224 204.972 362.929 204.173 363.832 203.599C364.741 203.026 365.804 202.739 367.02 202.739C367.759 202.739 368.474 202.861 369.168 203.105C369.861 203.349 370.483 203.733 371.034 204.256C371.585 204.778 372.02 205.457 372.338 206.293C372.656 207.122 372.815 208.131 372.815 209.318V210.222H362.409V208.312H370.318C370.318 207.642 370.182 207.048 369.909 206.531C369.636 206.009 369.253 205.597 368.759 205.295C368.27 204.994 367.696 204.844 367.037 204.844C366.321 204.844 365.696 205.02 365.162 205.372C364.634 205.719 364.224 206.173 363.935 206.736C363.651 207.293 363.509 207.898 363.509 208.551V210.043C363.509 210.918 363.662 211.662 363.969 212.276C364.281 212.889 364.716 213.358 365.273 213.682C365.83 214 366.48 214.159 367.224 214.159C367.707 214.159 368.148 214.091 368.545 213.955C368.943 213.812 369.287 213.602 369.577 213.324C369.866 213.045 370.088 212.702 370.241 212.293L372.653 212.727C372.46 213.437 372.114 214.06 371.614 214.594C371.119 215.122 370.497 215.534 369.747 215.83C369.003 216.119 368.153 216.264 367.199 216.264ZM378.191 198.545V216H375.643V198.545H378.191ZM384.168 198.545V216H381.619V198.545H384.168ZM389.275 216.162C388.809 216.162 388.408 215.997 388.073 215.668C387.738 215.332 387.57 214.929 387.57 214.457C387.57 213.991 387.738 213.594 388.073 213.264C388.408 212.929 388.809 212.761 389.275 212.761C389.741 212.761 390.141 212.929 390.477 213.264C390.812 213.594 390.979 213.991 390.979 214.457C390.979 214.77 390.9 215.057 390.741 215.318C390.587 215.574 390.383 215.778 390.127 215.932C389.871 216.085 389.587 216.162 389.275 216.162ZM410.188 203.131C410.097 202.324 409.722 201.699 409.062 201.256C408.403 200.807 407.574 200.582 406.574 200.582C405.858 200.582 405.239 200.696 404.716 200.923C404.193 201.145 403.787 201.452 403.497 201.844C403.213 202.23 403.071 202.67 403.071 203.165C403.071 203.58 403.168 203.937 403.361 204.239C403.56 204.54 403.818 204.793 404.136 204.997C404.46 205.196 404.807 205.364 405.176 205.5C405.545 205.631 405.901 205.739 406.241 205.824L407.946 206.267C408.503 206.403 409.074 206.588 409.659 206.821C410.244 207.054 410.787 207.361 411.287 207.741C411.787 208.122 412.19 208.594 412.497 209.156C412.81 209.719 412.966 210.392 412.966 211.176C412.966 212.165 412.71 213.043 412.199 213.81C411.693 214.577 410.957 215.182 409.991 215.625C409.031 216.068 407.869 216.29 406.506 216.29C405.199 216.29 404.068 216.082 403.114 215.668C402.159 215.253 401.412 214.665 400.872 213.903C400.332 213.136 400.034 212.227 399.977 211.176H402.619C402.67 211.807 402.875 212.332 403.233 212.753C403.597 213.168 404.06 213.477 404.622 213.682C405.19 213.881 405.812 213.98 406.489 213.98C407.233 213.98 407.895 213.864 408.474 213.631C409.06 213.392 409.52 213.062 409.855 212.642C410.19 212.216 410.358 211.719 410.358 211.151C410.358 210.634 410.21 210.21 409.915 209.881C409.625 209.551 409.23 209.278 408.73 209.062C408.236 208.847 407.676 208.656 407.051 208.491L404.989 207.929C403.591 207.548 402.483 206.989 401.665 206.25C400.852 205.511 400.446 204.534 400.446 203.318C400.446 202.312 400.719 201.435 401.264 200.685C401.81 199.935 402.548 199.352 403.48 198.938C404.412 198.517 405.463 198.307 406.634 198.307C407.815 198.307 408.858 198.514 409.761 198.929C410.67 199.344 411.386 199.915 411.909 200.642C412.432 201.364 412.705 202.193 412.727 203.131H410.188ZM419.718 216.29C418.888 216.29 418.138 216.136 417.468 215.83C416.798 215.517 416.266 215.065 415.874 214.474C415.488 213.884 415.295 213.159 415.295 212.301C415.295 211.562 415.437 210.955 415.721 210.477C416.005 210 416.388 209.622 416.871 209.344C417.354 209.065 417.894 208.855 418.491 208.713C419.087 208.571 419.695 208.463 420.315 208.389C421.099 208.298 421.735 208.224 422.224 208.168C422.712 208.105 423.067 208.006 423.289 207.869C423.511 207.733 423.621 207.511 423.621 207.205V207.145C423.621 206.401 423.411 205.824 422.991 205.415C422.576 205.006 421.957 204.801 421.133 204.801C420.275 204.801 419.599 204.991 419.104 205.372C418.616 205.747 418.278 206.165 418.09 206.625L415.695 206.08C415.979 205.284 416.394 204.642 416.94 204.153C417.491 203.659 418.124 203.301 418.84 203.08C419.556 202.852 420.309 202.739 421.099 202.739C421.621 202.739 422.175 202.801 422.761 202.926C423.352 203.045 423.903 203.267 424.414 203.591C424.931 203.915 425.354 204.378 425.684 204.98C426.013 205.577 426.178 206.352 426.178 207.307V216H423.69V214.21H423.587C423.423 214.54 423.175 214.864 422.846 215.182C422.516 215.5 422.093 215.764 421.576 215.974C421.059 216.185 420.44 216.29 419.718 216.29ZM420.272 214.244C420.977 214.244 421.579 214.105 422.079 213.827C422.585 213.548 422.968 213.185 423.229 212.736C423.496 212.281 423.63 211.795 423.63 211.278V209.591C423.539 209.682 423.363 209.767 423.102 209.847C422.846 209.92 422.553 209.986 422.224 210.043C421.894 210.094 421.573 210.142 421.261 210.188C420.948 210.227 420.687 210.261 420.477 210.29C419.982 210.352 419.531 210.457 419.121 210.605C418.718 210.753 418.394 210.966 418.15 211.244C417.911 211.517 417.792 211.881 417.792 212.335C417.792 212.966 418.025 213.443 418.491 213.767C418.957 214.085 419.55 214.244 420.272 214.244ZM437.865 210.571V202.909H440.422V216H437.916V213.733H437.78C437.479 214.432 436.996 215.014 436.331 215.48C435.672 215.94 434.851 216.17 433.868 216.17C433.027 216.17 432.283 215.986 431.635 215.616C430.993 215.241 430.487 214.688 430.118 213.955C429.754 213.222 429.572 212.315 429.572 211.236V202.909H432.121V210.929C432.121 211.821 432.368 212.531 432.862 213.06C433.357 213.588 433.999 213.852 434.788 213.852C435.266 213.852 435.74 213.733 436.212 213.494C436.689 213.256 437.084 212.895 437.396 212.412C437.714 211.929 437.871 211.315 437.865 210.571ZM444.05 216V198.545H446.599V205.031H446.752C446.9 204.759 447.113 204.443 447.391 204.085C447.67 203.727 448.056 203.415 448.55 203.148C449.045 202.875 449.698 202.739 450.511 202.739C451.567 202.739 452.511 203.006 453.34 203.54C454.17 204.074 454.82 204.844 455.292 205.849C455.769 206.855 456.008 208.065 456.008 209.48C456.008 210.895 455.772 212.108 455.3 213.119C454.829 214.125 454.181 214.901 453.357 215.446C452.533 215.986 451.593 216.256 450.536 216.256C449.741 216.256 449.09 216.122 448.585 215.855C448.085 215.588 447.692 215.276 447.408 214.918C447.124 214.56 446.906 214.241 446.752 213.963H446.539V216H444.05ZM446.548 209.455C446.548 210.375 446.681 211.182 446.948 211.875C447.215 212.568 447.602 213.111 448.107 213.503C448.613 213.889 449.232 214.082 449.965 214.082C450.727 214.082 451.363 213.881 451.874 213.477C452.386 213.068 452.772 212.514 453.033 211.815C453.3 211.116 453.434 210.33 453.434 209.455C453.434 208.591 453.303 207.815 453.042 207.128C452.786 206.44 452.4 205.898 451.883 205.5C451.371 205.102 450.732 204.903 449.965 204.903C449.227 204.903 448.602 205.094 448.09 205.474C447.585 205.855 447.201 206.386 446.94 207.068C446.678 207.75 446.548 208.545 446.548 209.455ZM464.511 216.264C463.222 216.264 462.111 215.989 461.179 215.438C460.253 214.881 459.537 214.099 459.031 213.094C458.531 212.082 458.281 210.898 458.281 209.54C458.281 208.199 458.531 207.017 459.031 205.994C459.537 204.972 460.241 204.173 461.145 203.599C462.054 203.026 463.116 202.739 464.332 202.739C465.071 202.739 465.787 202.861 466.48 203.105C467.173 203.349 467.795 203.733 468.347 204.256C468.898 204.778 469.332 205.457 469.651 206.293C469.969 207.122 470.128 208.131 470.128 209.318V210.222H459.722V208.312H467.631C467.631 207.642 467.494 207.048 467.222 206.531C466.949 206.009 466.565 205.597 466.071 205.295C465.582 204.994 465.009 204.844 464.349 204.844C463.634 204.844 463.009 205.02 462.474 205.372C461.946 205.719 461.537 206.173 461.247 206.736C460.963 207.293 460.821 207.898 460.821 208.551V210.043C460.821 210.918 460.974 211.662 461.281 212.276C461.594 212.889 462.028 213.358 462.585 213.682C463.142 214 463.793 214.159 464.537 214.159C465.02 214.159 465.46 214.091 465.858 213.955C466.256 213.812 466.599 213.602 466.889 213.324C467.179 213.045 467.401 212.702 467.554 212.293L469.966 212.727C469.773 213.437 469.426 214.06 468.926 214.594C468.432 215.122 467.81 215.534 467.06 215.83C466.315 216.119 465.466 216.264 464.511 216.264ZM472.955 216V202.909H475.418V204.989H475.555C475.793 204.284 476.214 203.73 476.816 203.327C477.424 202.918 478.112 202.713 478.879 202.713C479.038 202.713 479.225 202.719 479.441 202.73C479.663 202.741 479.836 202.756 479.961 202.773V205.21C479.859 205.182 479.677 205.151 479.415 205.116C479.154 205.077 478.893 205.057 478.631 205.057C478.029 205.057 477.492 205.185 477.021 205.44C476.555 205.69 476.185 206.04 475.913 206.489C475.64 206.932 475.504 207.437 475.504 208.006V216H472.955ZM482.345 216.162C481.879 216.162 481.479 215.997 481.143 215.668C480.808 215.332 480.641 214.929 480.641 214.457C480.641 213.991 480.808 213.594 481.143 213.264C481.479 212.929 481.879 212.761 482.345 212.761C482.811 212.761 483.212 212.929 483.547 213.264C483.882 213.594 484.05 213.991 484.05 214.457C484.05 214.77 483.97 215.057 483.811 215.318C483.658 215.574 483.453 215.778 483.197 215.932C482.942 216.085 482.658 216.162 482.345 216.162ZM493.738 216V198.545H499.96C501.317 198.545 502.442 198.793 503.335 199.287C504.227 199.781 504.894 200.457 505.337 201.315C505.781 202.168 506.002 203.128 506.002 204.196C506.002 205.27 505.778 206.236 505.329 207.094C504.886 207.946 504.215 208.622 503.317 209.122C502.425 209.616 501.303 209.864 499.951 209.864H495.673V207.631H499.712C500.57 207.631 501.266 207.483 501.8 207.188C502.335 206.886 502.727 206.477 502.977 205.96C503.227 205.443 503.352 204.855 503.352 204.196C503.352 203.537 503.227 202.952 502.977 202.44C502.727 201.929 502.332 201.528 501.792 201.239C501.258 200.949 500.553 200.804 499.678 200.804H496.371V216H493.738ZM508.885 216V202.909H511.348V204.989H511.484C511.723 204.284 512.143 203.73 512.746 203.327C513.354 202.918 514.041 202.713 514.808 202.713C514.967 202.713 515.155 202.719 515.371 202.73C515.592 202.741 515.766 202.756 515.891 202.773V205.21C515.788 205.182 515.607 205.151 515.345 205.116C515.084 205.077 514.822 205.057 514.561 205.057C513.959 205.057 513.422 205.185 512.95 205.44C512.484 205.69 512.115 206.04 511.842 206.489C511.57 206.932 511.433 207.437 511.433 208.006V216H508.885ZM523.269 216.264C521.979 216.264 520.869 215.989 519.937 215.438C519.011 214.881 518.295 214.099 517.789 213.094C517.289 212.082 517.039 210.898 517.039 209.54C517.039 208.199 517.289 207.017 517.789 205.994C518.295 204.972 518.999 204.173 519.903 203.599C520.812 203.026 521.874 202.739 523.09 202.739C523.829 202.739 524.545 202.861 525.238 203.105C525.931 203.349 526.553 203.733 527.104 204.256C527.656 204.778 528.09 205.457 528.408 206.293C528.727 207.122 528.886 208.131 528.886 209.318V210.222H518.479V208.312H526.388C526.388 207.642 526.252 207.048 525.979 206.531C525.707 206.009 525.323 205.597 524.829 205.295C524.34 204.994 523.766 204.844 523.107 204.844C522.391 204.844 521.766 205.02 521.232 205.372C520.704 205.719 520.295 206.173 520.005 206.736C519.721 207.293 519.579 207.898 519.579 208.551V210.043C519.579 210.918 519.732 211.662 520.039 212.276C520.352 212.889 520.786 213.358 521.343 213.682C521.9 214 522.55 214.159 523.295 214.159C523.778 214.159 524.218 214.091 524.616 213.955C525.013 213.812 525.357 213.602 525.647 213.324C525.937 213.045 526.158 212.702 526.312 212.293L528.724 212.727C528.531 213.437 528.184 214.06 527.684 214.594C527.19 215.122 526.567 215.534 525.817 215.83C525.073 216.119 524.224 216.264 523.269 216.264ZM531.713 216V202.909H534.261V216H531.713ZM533 200.889C532.557 200.889 532.176 200.741 531.858 200.446C531.545 200.145 531.389 199.787 531.389 199.372C531.389 198.952 531.545 198.594 531.858 198.298C532.176 197.997 532.557 197.847 533 197.847C533.443 197.847 533.821 197.997 534.134 198.298C534.452 198.594 534.611 198.952 534.611 199.372C534.611 199.787 534.452 200.145 534.134 200.446C533.821 200.741 533.443 200.889 533 200.889ZM547.499 206.105L545.19 206.514C545.093 206.219 544.94 205.937 544.729 205.67C544.525 205.403 544.246 205.185 543.894 205.014C543.542 204.844 543.102 204.759 542.573 204.759C541.852 204.759 541.249 204.92 540.766 205.244C540.283 205.562 540.042 205.974 540.042 206.48C540.042 206.918 540.204 207.27 540.528 207.537C540.852 207.804 541.374 208.023 542.096 208.193L544.175 208.67C545.38 208.949 546.278 209.378 546.869 209.957C547.46 210.537 547.755 211.29 547.755 212.216C547.755 213 547.528 213.699 547.073 214.312C546.624 214.92 545.996 215.398 545.19 215.744C544.388 216.091 543.46 216.264 542.403 216.264C540.937 216.264 539.741 215.952 538.815 215.327C537.888 214.696 537.32 213.801 537.11 212.642L539.573 212.267C539.727 212.909 540.042 213.395 540.519 213.724C540.996 214.048 541.619 214.21 542.386 214.21C543.221 214.21 543.888 214.037 544.388 213.69C544.888 213.338 545.138 212.909 545.138 212.403C545.138 211.994 544.985 211.651 544.678 211.372C544.377 211.094 543.914 210.884 543.289 210.741L541.073 210.256C539.852 209.977 538.948 209.534 538.363 208.926C537.783 208.318 537.494 207.548 537.494 206.616C537.494 205.844 537.71 205.168 538.141 204.588C538.573 204.009 539.17 203.557 539.931 203.233C540.692 202.903 541.565 202.739 542.548 202.739C543.962 202.739 545.076 203.045 545.888 203.659C546.701 204.267 547.238 205.082 547.499 206.105ZM553.395 216L549.543 202.909H552.176L554.741 212.523H554.869L557.443 202.909H560.077L562.634 212.48H562.761L565.31 202.909H567.943L564.099 216H561.5L558.841 206.548H558.645L555.986 216H553.395ZM575.605 216.264C574.315 216.264 573.205 215.989 572.273 215.438C571.347 214.881 570.631 214.099 570.125 213.094C569.625 212.082 569.375 210.898 569.375 209.54C569.375 208.199 569.625 207.017 570.125 205.994C570.631 204.972 571.335 204.173 572.239 203.599C573.148 203.026 574.21 202.739 575.426 202.739C576.165 202.739 576.881 202.861 577.574 203.105C578.267 203.349 578.889 203.733 579.44 204.256C579.991 204.778 580.426 205.457 580.744 206.293C581.063 207.122 581.222 208.131 581.222 209.318V210.222H570.815V208.312H578.724C578.724 207.642 578.588 207.048 578.315 206.531C578.043 206.009 577.659 205.597 577.165 205.295C576.676 204.994 576.102 204.844 575.443 204.844C574.727 204.844 574.102 205.02 573.568 205.372C573.04 205.719 572.631 206.173 572.341 206.736C572.057 207.293 571.915 207.898 571.915 208.551V210.043C571.915 210.918 572.068 211.662 572.375 212.276C572.688 212.889 573.122 213.358 573.679 213.682C574.236 214 574.886 214.159 575.631 214.159C576.114 214.159 576.554 214.091 576.952 213.955C577.349 213.812 577.693 213.602 577.983 213.324C578.273 213.045 578.494 212.702 578.648 212.293L581.06 212.727C580.866 213.437 580.52 214.06 580.02 214.594C579.526 215.122 578.903 215.534 578.153 215.83C577.409 216.119 576.56 216.264 575.605 216.264ZM584.049 216V202.909H586.512V204.989H586.648C586.887 204.284 587.308 203.73 587.91 203.327C588.518 202.918 589.205 202.713 589.972 202.713C590.131 202.713 590.319 202.719 590.535 202.73C590.756 202.741 590.93 202.756 591.055 202.773V205.21C590.952 205.182 590.771 205.151 590.509 205.116C590.248 205.077 589.987 205.057 589.725 205.057C589.123 205.057 588.586 205.185 588.114 205.44C587.648 205.69 587.279 206.04 587.006 206.489C586.734 206.932 586.597 207.437 586.597 208.006V216H584.049ZM600.144 202.909V204.955H592.994V202.909H600.144ZM594.911 199.773H597.46V212.156C597.46 212.651 597.533 213.023 597.681 213.273C597.829 213.517 598.019 213.685 598.252 213.776C598.491 213.861 598.749 213.903 599.028 213.903C599.232 213.903 599.411 213.889 599.565 213.861C599.718 213.832 599.837 213.81 599.923 213.793L600.383 215.898C600.235 215.955 600.025 216.011 599.752 216.068C599.479 216.131 599.138 216.165 598.729 216.17C598.059 216.182 597.434 216.062 596.854 215.812C596.275 215.562 595.806 215.176 595.448 214.653C595.09 214.131 594.911 213.474 594.911 212.685V199.773ZM604.642 216.162C604.176 216.162 603.776 215.997 603.44 215.668C603.105 215.332 602.938 214.929 602.938 214.457C602.938 213.991 603.105 213.594 603.44 213.264C603.776 212.929 604.176 212.761 604.642 212.761C605.108 212.761 605.509 212.929 605.844 213.264C606.179 213.594 606.347 213.991 606.347 214.457C606.347 214.77 606.267 215.057 606.108 215.318C605.955 215.574 605.75 215.778 605.494 215.932C605.239 216.085 604.955 216.162 604.642 216.162Z" fill="#24559A"/>
</g>
<defs>
<clipPath id="clip0_13_5">
<rect width="800" height="220" fill="white"/>
</clipPath>
</defs>
</svg>
