<svg width="512" height="512" viewBox="0 0 512 512" xmlns="http://www.w3.org/2000/svg"><rect width="512" height="512" rx="112" fill="#24559A"/><g transform="translate(150.7 81.0) scale(1.5152)"><g fill="none"><path d="M94.6085 151.808C96.9611 155.252 97.7913 159.825 96.471 164.202L95.6689 166.862L71.4233 158.375L72.2254 155.716C73.3135 152.108 75.6549 149.318 78.5615 147.723C79.1816 147.382 79.8284 147.095 80.4948 146.868" stroke="#FFFFFF" stroke-width="7" stroke-miterlimit="10" stroke-linecap="round" stroke-linejoin="round"/>
<path d="M80.4941 146.868L94.6091 151.808L136.635 12.4712C137.902 8.27224 135.768 3.76238 131.871 2.39806C127.973 1.03374 123.787 3.33164 122.52 7.53059L80.4941 146.868Z" stroke="#FFFFFF" stroke-width="7" stroke-miterlimit="10" stroke-linecap="round" stroke-linejoin="round"/>
<path d="M49.0177 170.851C44.4481 177.134 39.2398 182.984 32.6987 186.856C18.9746 194.975 5.84972 193.012 2.00024 192.281C7.70393 196.644 14.3119 201.197 21.8373 205.58C25.6244 207.785 29.6452 209.946 33.8996 212.018C48.8019 219.277 61.7955 223.266 73.3109 225.64C79.6497 226.946 85.5426 227.763 91.0578 228.369C94.3025 224.614 99.7641 217.31 103.015 206.414L103.072 206.223C105.692 197.437 107.04 188.268 107.067 179.04L107.072 177.473C107.083 173.532 104.734 170.034 101.254 168.817C92.2294 165.658 74.9847 159.622 65.9139 156.447C62.3987 155.216 58.5504 156.599 56.4243 159.856L54.2297 163.218C52.5647 165.766 50.8421 168.343 49.0177 170.851Z" stroke="#FFFFFF" stroke-width="7" stroke-miterlimit="10" stroke-linecap="round" stroke-linejoin="round"/>
<path d="M21.8357 205.578C26.6636 205.733 34.3838 204.97 42.923 199.909C51.4207 194.873 56.7922 187.912 59.3692 184.127" stroke="#FFFFFF" stroke-width="7" stroke-miterlimit="10" stroke-linecap="round" stroke-linejoin="round"/>
<path d="M45.6968 217.259C49.8341 216.388 54.9473 214.516 60.3337 210.615C68.0492 205.028 72.7499 197.867 74.9845 194.002L75.6439 192.887" stroke="#FFFFFF" stroke-width="7" stroke-miterlimit="10" stroke-linecap="round" stroke-linejoin="round"/>
<path d="M89.7998 200.507C88.6065 204.739 85.9657 212.168 80.2211 219.054C77.869 221.873 75.4234 224.088 73.0571 225.83" stroke="#FFFFFF" stroke-width="7" stroke-miterlimit="10" stroke-linecap="round" stroke-linejoin="round"/>
<path d="M106.303 190.885L49.0278 170.838" stroke="#FFFFFF" stroke-width="7" stroke-miterlimit="10" stroke-linecap="round" stroke-linejoin="round"/>
<path d="M107.025 181.63L54.2644 163.163" stroke="#FFFFFF" stroke-width="7" stroke-miterlimit="10" stroke-linecap="round" stroke-linejoin="round"/></g></g></svg>